<svg t="1713342634952" class="icon" viewBox="0 0 1024 1024" version="1.1" xmlns="http://www.w3.org/2000/svg" p-id="4485" width="200" height="200"><path d="M939.40658 592.579641l-93.289939-93.289939c-4.621927-4.621927-10.825039-7.05452-16.906521-7.05452s-12.284594 2.432593-16.906521 7.05452L523.676446 787.673595c-3.52726 3.52726-5.594964 7.905927-6.568001 12.406224h-0.121629l-17.51467 122.237796-0.243259 0.12163 0.12163 0.729777-1.824445 12.527854c-0.243259 0.851408-0.486519 1.946074-0.486519 2.797482 0 3.770519 2.675852 6.81126 6.446372 7.176149v0.243259l0.729778-0.243259c0.12163 0 0.12163 0.12163 0.121629 0.12163 1.094667 0 2.189334-0.243259 3.040741-0.608148l131.11676-23.596152v-0.12163c4.621927-0.851408 9.000594-3.162371 12.527854-6.568001L939.40658 626.392683c9.365483-9.365483 9.365483-24.569189 0-33.813042z m-259.922556 1.581186c-37.340302-24.812448-78.937641-43.786673-123.818981-54.611712 87.208457-35.759116 148.996318-121.508018 148.996318-221.487588 0-132.089797-107.642238-239.610405-239.610405-239.610405-132.089797 0-239.610405 107.398979-239.610405 239.610405 0 99.97957 61.544601 185.606842 148.753059 221.487588C203.790474 580.659936 76.565863 734.034921 76.565863 917.08754c0 14.960447 12.162965 27.123411 27.123411 27.123411 15.082076 0 27.123411-12.162965 27.123412-27.123411 0-184.268916 149.969355-334.238271 334.23827-334.23827 64.220454 0 123.940611 18.609336 175.025063 50.111414l39.408005-38.799857zM279.809003 318.183157c0-102.168904 83.073049-185.241953 185.241953-185.241953s185.241953 83.073049 185.241953 185.241953-83.194679 185.241953-185.241953 185.241953c-102.290533 0-185.241953-83.073049-185.241953-185.241953z m638.434019 574.821713H718.89203c-14.960447 0-27.123411 12.041335-27.123411 27.123411 0 14.960447 12.162965 27.123411 27.123411 27.123412h199.350992c14.960447 0 27.123411-12.162965 27.123411-27.123412 0-15.082076-12.162965-27.123411-27.123411-27.123411z m0 0" p-id="4486" fill="#2c2c2c"></path></svg>