<svg t="1713342176828" class="icon" viewBox="0 0 1024 1024" version="1.1" xmlns="http://www.w3.org/2000/svg" p-id="4812" width="200" height="200"><path d="M541.301291 208.734604l461.916425 148.996155c21.630603 6.971771 21.348171 51.649231 0 58.539137L541.301291 565.278331c-21.489387 6.935956-37.002678 6.960515-58.539137-0.022513L20.869265 416.27092c-21.512923-6.936979-21.700188-51.54383 0-58.539138l461.892889-148.996154c21.676652-6.995307 36.909558-6.972794 58.539137-0.001024z" fill="#2c2c2c" p-id="4813"></path><path d="M798.893552 535.821497v212.292633c-70.677571 44.40833-173.509406 72.388536-287.962905 72.388536-114.454523 0-217.260775-27.980205-287.962905-72.388536V535.821497l258.739385 83.425895c21.536459 6.960515 37.050773 6.936979 58.540161 0.023536l258.646264-83.449431zM118.590718 439.575649S87.001319 437.138138 75.846281 531.649486l-0.37453 3.069913c-14.061222 7.146756-23.528832 20.786377-23.528832 36.439861 0 12.27965 5.812368 23.317008 15.092713 30.980533-9.327417 70.443235-20.248119 136.716505-33.418044 178.945197 0 0-7.287972 35.362322 9.514682 36.13594 16.779118 0.750082 108.173482 0 108.173482 0s18.559667-5.202478 10.850094-35.291714c0 0-28.121421-81.270816-33.628844-179.344286 9.607803-7.662501 15.701579-18.910661 15.701579-31.42567 0-13.497382-7.077172-25.519159-18.068482-33.182684 0.11768-41.338418 6.866371-50.841844 28.027278-83.134253l-35.596659-15.266674z" fill="#2c2c2c" p-id="4814"></path></svg>