<svg t="1713342791895" class="icon" viewBox="0 0 1024 1024" version="1.1" xmlns="http://www.w3.org/2000/svg" p-id="5736" width="200" height="200"><path d="M953.344 33.28c-3.584-1.024-7.168-1.536-10.752-1.536h-255.488c-28.672 0-51.712 23.04-51.712 51.712s23.04 51.712 51.712 51.712h123.392L645.12 300.544c-61.44-40.448-134.656-64.512-213.504-64.512-214.016 0-388.096 174.08-388.096 388.096s174.08 388.096 388.096 388.096 388.096-174.08 388.096-388.096c0-97.792-36.352-187.392-96.256-256l158.72-158.72v119.808c0 28.672 23.04 51.712 51.712 51.712s51.712-23.04 51.712-51.712V74.24c-0.512-19.456-13.824-36.352-32.256-40.96z m-522.24 885.76c-162.304 0-294.4-132.096-294.4-294.4s132.096-294.4 294.4-294.4 294.4 132.096 294.4 294.4-132.096 294.4-294.4 294.4z" p-id="5737"></path></svg>