<svg t="1713342009516" class="icon" viewBox="0 0 1024 1024" version="1.1" xmlns="http://www.w3.org/2000/svg" p-id="4258" width="200" height="200"><path d="M135.1 307.7L513 500l377.9-192.3L513 122.1 135.1 307.7z m53 298.4l-79.6-39.8C82 553 68.7 533.1 68.7 506.6s13.3-46.4 39.8-59.7l79.6-39.8-79.6-39.8c-33.2-13.3-46.4-53-33.2-86.2 6.6-13.3 19.9-26.5 26.5-26.5L479.9 69c19.9-6.6 39.8-6.6 59.7 0l377.9 185.6c33.1 13.3 46.4 53 26.5 86.2-6.6 13.3-19.9 26.5-26.5 26.5l-79.6 39.8 72.9 33.2c33.1 13.3 46.4 33.1 46.4 66.3 0 26.5-13.3 53-46.4 66.3l-72.9 33.2 72.9 33.2c33.1 13.3 46.4 33.1 46.4 66.3 0 26.5-13.3 53-46.4 66.3l-364.7 179c-6.6 6.6-19.9 6.6-33.2 6.6-13.3 0-19.9 0-33.2-6.6L101.9 765.2c-26.5-13.3-33.2-33.2-33.2-59.7s13.3-46.4 39.8-59.7l79.6-39.7z m73 39.8l-126 59.7L513 897.8l377.9-185.6-126-59.7-218.7 106.1c-6.6 6.6-19.9 6.6-33.2 6.6-13.3 0-19.9 0-33.2-6.6L261.1 645.9zM765 447L546.2 553c-19.9 6.6-39.8 6.6-59.7 0L261.1 447l-126 59.7L513 698.9l377.9-192.3L765 447z m0 0" fill="#2c2c2c" p-id="4259"></path></svg>